<?xml version="1.0" encoding="UTF-8" standalone="no"?>
<!-- Created with Inkscape (http://www.inkscape.org/) -->

<svg
   width="210mm"
   height="210mm"
   viewBox="0 0 210 210"
   version="1.1"
   id="svg1"
   xml:space="preserve"
   xmlns:xlink="http://www.w3.org/1999/xlink"
   xmlns="http://www.w3.org/2000/svg"
   xmlns:svg="http://www.w3.org/2000/svg"><defs
     id="defs1"><linearGradient
       id="linearGradient10444"><stop
         style="stop-color:#009c00;stop-opacity:1;"
         offset="0"
         id="stop10444" /><stop
         style="stop-color:#003864;stop-opacity:1;"
         offset="1"
         id="stop10445" /></linearGradient><linearGradient
       xlink:href="#linearGradient10444"
       id="linearGradient10445"
       x1="-238.22932"
       y1="471.06906"
       x2="-125.68566"
       y2="471.06906"
       gradientUnits="userSpaceOnUse"
       gradientTransform="translate(247.7054,-327.77935)" /></defs><g
     id="layer1"><g
       id="g10445"
       transform="translate(-0.42021575,0.4383553)"><path
         style="fill:#009800;fill-opacity:1"
         d="m 197.884,64.267002 c -0.96187,-1.64083 -3.52599,-3.962179 -5.30108,-4.799169 -1.48805,-0.70164 -4.43135,-1.47056 -5.66555,-1.48009 -0.32742,-0.003 -0.59531,-0.0539 -0.59531,-0.11419 0,-0.0603 0.41066,-1.18569 0.91257,-2.50093 2.45562,-6.43482 3.91643,-13.64537 3.92015,-19.34989 l 0.002,-3.83645 -0.71414,-2.37545 c -0.92415,-3.07396 -1.78368,-4.63298 -3.6694,-6.65561 -2.45882,-2.63731 -4.71432,-3.82805 -8.96458,-4.73263 -5.22832,-1.11274 -13.41491,0.18527 -20.30121,3.21884 -2.63628,1.16134 -1.65363,0.45503 1.28389,-0.92284 6.82802,-3.20272 13.37114,-5.26487 18.69899,-5.89322 2.42549,-0.28605 8.45484,-0.18891 10.55102,0.16999 1.8696,0.32011 5.24226,1.47596 7.01146,2.40291 7.57391,3.96825 11.16462,10.54862 11.10122,20.34425 -0.0502,7.74893 -2.29771,16.77613 -6.30752,25.333859 -0.59662,1.27331 -1.13406,2.3151 -1.1943,2.3151 -0.0602,0 -0.40616,-0.50601 -0.76871,-1.12448 z"
         id="path10443" /><path
         style="fill:#009800;fill-opacity:1"
         d="m 182.61789,72.932112 v -8.59896 h 1.45521 1.45521 v 3.28083 3.28083 l 0.87588,-0.87587 c 1.53794,-1.53795 3.92441,-1.7466 5.70051,-0.4984 1.1688,0.82141 1.36111,1.82557 1.36111,7.10723 v 4.90329 h -1.32292 -1.32291 v -3.95152 c 0,-2.17334 -0.11499,-4.22717 -0.25554,-4.56406 -0.49709,-1.19156 -1.04231,-1.64442 -1.9798,-1.64442 -1.24167,0 -2.15987,0.54561 -2.64748,1.57319 l -0.40885,0.86158 v 3.86262 3.86261 h -1.45521 -1.45521 z"
         id="path10442" /><path
         style="fill:#009800;fill-opacity:1"
         d="m 114.88456,71.635322 v -9.89574 l -4.05369,-7.103739 C 105.10704,44.605353 96.891326,30.134003 95.717366,28.014573 l -0.99173,-1.79046 6.788764,0.0707 6.78876,0.0707 0.85769,1.5875 c 1.759,3.25575 4.02301,7.48626 5.3158,9.93309 0.73367,1.38861 2.57419,4.87119 4.09003,7.73906 1.51584,2.86788 2.79949,5.1709 2.85256,5.11783 0.0531,-0.0531 2.94452,-5.55971 6.42545,-12.23699 l 6.32895,-12.14049 6.62734,-0.0707 c 3.64503,-0.0389 6.62733,-0.003 6.62733,0.0804 0,0.23993 -0.48967,1.11618 -14.0029,25.0576 l -6.38314,11.309019 0.0727,9.39474 0.0727,9.39473 -6.15156,-1.1e-4 -6.15157,-1.2e-4 z"
         id="path10441" /><path
         id="path10440"
         style="fill:#009800;fill-opacity:1"
         d="m 70.644366,26.365443 -0.77669,2.11667 c -0.42707,1.16417 -1.79473,4.91463 -3.03909,8.33437 -1.24435,3.41974 -4.10652,11.21834 -6.36034,17.33021 -2.25383,6.11188 -5.17263,14.029529 -6.48643,17.594789 -1.31379,3.56526 -2.66934,7.22847 -3.01222,8.14059 l -0.62321,1.6583 6.273,-0.0708 6.273,-0.0708 2.02365,-5.55625 2.02313,-5.55625 h 10.80968 10.80968 l 1.98437,5.55625 1.98438,5.55625 6.5381,0.0708 6.538624,0.0708 -0.36071,-0.99684 c -0.1983,-0.54824 -1.81081,-4.7473 -3.58376,-9.33121 -1.772945,-4.5839 -4.395184,-11.370469 -5.827034,-15.081249 -1.43184,-3.71079 -3.51572,-9.0686 -4.63073,-11.90625 -1.11501,-2.83766 -2.30497,-5.93328 -2.64428,-6.87917 -0.33932,-0.94589 -1.43532,-3.80339 -2.43551,-6.35 l -1.81849,-4.63021 h -6.82956 z m 6.86728,13.2886 0.46406,1.42523 c 0.59608,1.83031 3.33287,9.23398 5.40019,14.60841 0.8858,2.30281 1.61075,4.23758 1.61075,4.29948 0,0.06195 -3.33375,0.11266 -7.40833,0.11266 -4.47849,0 -7.40834,-0.09887 -7.40834,-0.25012 0,-0.13761 0.59165,-1.83425 1.31465,-3.77031 0.723,-1.93607 2.37466,-6.42405 3.67058,-9.97303 z" /><path
         style="fill:#009800;fill-opacity:1"
         d="m 174.94327,81.561932 c -3.03222,-0.98387 -4.32047,-2.85294 -4.32455,-6.27433 l -0.003,-2.14247 0.60141,-1.16483 c 0.84352,-1.63374 1.46079,-2.22577 3.02004,-2.89654 l 1.35723,-0.58387 1.81805,0.15242 c 0.99993,0.0838 2.10386,0.33969 2.45319,0.56858 l 0.63515,0.41616 v 1.18453 c 0,1.34168 -0.12778,1.39602 -1.85209,0.78765 -2.48417,-0.87647 -4.17821,-0.0815 -4.8829,2.29148 -1.09822,3.69811 1.87228,6.30348 5.37482,4.71417 0.63435,-0.28785 1.1999,-0.52336 1.25677,-0.52336 0.0569,0 0.1034,0.59257 0.1034,1.31682 v 1.31682 l -0.70667,0.46302 c -0.78005,0.51111 -3.728,0.73823 -4.85129,0.37375 z"
         id="path10438" /><path
         style="fill:#009800;fill-opacity:1"
         d="m 161.79687,81.503532 c -0.46473,-0.13443 -1.27704,-0.65191 -1.80513,-1.14996 l -0.96015,-0.90554 0.0853,-0.74441 0.0853,-0.7444 1.02514,-0.0841 1.02513,-0.0841 0.74843,0.71704 c 0.54067,0.51799 1.10581,0.75138 2.03577,0.84074 l 1.28733,0.1237 0.44483,-0.44483 c 1.06098,-1.06099 0.44105,-1.78556 -2.46559,-2.88173 -2.76169,-1.04152 -3.15903,-1.27346 -3.71066,-2.16602 -1.01935,-1.64934 -0.38486,-4.10771 1.25677,-4.86949 1.07624,-0.49941 3.7353,-0.65 5.07539,-0.28743 1.41317,0.38235 2.67017,1.55982 2.67017,2.50124 v 0.68181 h -1.01785 c -0.63445,0 -1.24524,-0.19721 -1.62152,-0.52355 -1.23338,-1.06971 -3.69728,-0.85652 -3.92768,0.33984 -0.14788,0.76789 0.37176,1.1448 2.96205,2.14846 1.54175,0.59738 2.73948,1.25046 3.22684,1.75948 l 0.77503,0.80949 -0.0131,1.38806 c -0.0163,1.72725 -0.74128,2.84204 -2.23784,3.44084 -1.15341,0.4615 -3.58544,0.52783 -4.94408,0.13482 z"
         id="path10437" /><path
         style="fill:#009800;fill-opacity:1"
         d="m 148.35435,81.543232 c -0.87347,-0.36129 -1.74922,-1.48492 -2.00015,-2.56628 -0.1299,-0.55977 -0.23918,-3.04182 -0.24285,-5.51568 l -0.007,-4.49791 1.43843,0.0896 1.43844,0.0896 0.0833,4.49836 0.0833,4.49837 0.65737,0.53174 0.65737,0.53173 1.03665,-0.13904 c 0.62579,-0.0839 1.30902,-0.41122 1.72388,-0.82579 l 0.68723,-0.68674 0.089,-4.20465 0.089,-4.20464 1.43735,-0.0893 1.43736,-0.0893 -0.0711,6.2177 -0.0711,6.21771 -1.42128,0.0811 -1.42129,0.0811 0.11869,-0.80869 c 0.13217,-0.90055 -0.0733,-1.02642 -0.61341,-0.37567 -0.89343,1.07651 -3.76711,1.73011 -5.12938,1.16664 z"
         id="path10436" /><path
         id="path10435"
         style="fill:#009800;fill-opacity:1"
         d="m 131.8179,64.333152 v 8.59896 8.59896 h 1.32292 1.32291 v -0.83975 -0.84025 l 0.59532,0.54312 c 0.32742,0.29871 0.95249,0.73154 1.38906,0.96169 1.81061,0.95453 4.44928,0.36586 5.93762,-1.32498 1.28161,-1.45598 1.7077,-2.97649 1.54513,-5.50974 l -0.12661,-1.97973 -0.77618,-1.25522 c -0.94848,-1.53412 -2.13764,-2.37174 -3.70003,-2.60604 -1.45423,-0.21807 -3.2937,0.41416 -4.06746,1.39785 l -0.53226,0.67644 v -3.21065 -3.21066 h -1.45521 z m 6.24251,6.89622 c 0.49324,0.0284 0.99984,0.20543 1.4857,0.55139 2.01101,1.432 2.05213,5.23897 0.0734,6.79545 -0.94481,0.7432 -2.47023,0.7567 -3.39411,0.03 -0.85383,-0.67162 -1.52162,-2.7782 -1.31465,-4.14755 0.31133,-2.05974 1.66997,-3.31439 3.14968,-3.22926 z" /><path
         style="fill:#009800;fill-opacity:1"
         d="m 23.471026,82.990592 c -3.92275,-0.48586 -4.4003,-0.58543 -7.08774,-1.47784 -5.3402,-1.77331 -9.2734893,-5.49845 -10.9651393,-10.38484 l -0.65777,-1.89997 -0.0374,-2.72843 -0.0374,-2.72843 5.9272893,0.0257 c 3.26,0.0142 6.00219,0.072 6.09375,0.12863 0.0915,0.0566 0.19443,0.46986 0.2286,0.91839 0.28267,3.70962 3.81341,7.1792 8.12328,7.98257 1.98632,0.37026 6.17753,0.15995 7.97563,-0.4002 1.85776,-0.57875 3.90567,-2.51781 4.32393,-4.09413 0.65751,-2.47799 -0.32323,-4.93445 -2.64017,-6.61283 -1.15589,-0.83732 -4.12698,-2.060499 -7.01356,-2.887429 -5.82974,-1.67008 -9.50225,-2.81512 -11.37708,-3.5472 -7.0315197,-2.74567 -10.2489093,-6.81451 -10.4191493,-13.17647 -0.0755,-2.82233 0.32205,-4.5498 1.68375,-7.31607 l 1.19188,-2.42128 1.8495793,-1.71243 c 3.27085,-3.02831 7.07054,-4.45623 13.30071,-4.99842 3.92766,-0.34181 8.83338,-0.019 12.39768,0.81592 8.4704,1.98405 12.72006,6.71648 13.3358,14.85081 l 0.15998,2.11354 -6.69495,-0.0707 -6.69496,-0.0707 -0.19204,-1.53831 c -0.26595,-2.13049 -1.08979,-3.46017 -2.88766,-4.66074 -2.12331,-1.41789 -4.38741,-1.97929 -7.29934,-1.80991 -1.27762,0.0743 -2.7992,0.33548 -3.38128,0.58035 -3.63635,1.52977 -4.71239,5.89472 -2.07219,8.40584 1.269,1.20697 3.54743,2.04283 9.94337,3.64783 6.87939,1.72632 9.15371,2.47989 12.23715,4.05468 3.89729,1.99043 6.7306,5.55867 7.52714,9.479599 0.69586,3.42537 0.30196,8.65599 -0.84972,11.28356 -1.72505,3.93567 -5.94881,7.48916 -10.7914,9.0789 -3.81768,1.25328 -10.42324,1.76172 -15.2006,1.17002 z"
         id="path10433" /><path
         style="fill:#003864;fill-opacity:1"
         d="M 163.03873,120.56207 V 97.935232 h -8.86938 -8.86938 l 0.072,-4.96094 0.072,-4.96093 23.21718,-0.0676 23.21719,-0.0676 1.4e-4,5.09468 1.3e-4,5.09467 -8.33302,-0.0734 -8.33302,-0.0734 -0.0676,22.562998 -0.0676,22.56301 -6.01927,0.0711 -6.01927,0.0711 z"
         id="path10432" /><path
         style="fill:#003864;fill-opacity:1"
         d="m 99.132146,142.84988 c -0.0696,-0.1828 -0.096,-12.5958 -0.0585,-27.58444 l 0.0682,-27.252078 h 19.976044 19.97604 v 4.96788 4.96787 l -13.89063,0.0592 -13.89062,0.0592 v 5.688538 5.68854 h 13.16305 13.16305 l -3e-5,4.82618 -3e-5,4.82618 -13.16302,0.0686 -13.16302,0.0686 v 6.87916 6.87917 l 14.41979,0.13229 14.41979,0.13229 v 4.89479 4.8948 l -20.44674,0.0678 -20.446735,0.0678 z"
         id="path10431" /><path
         style="fill:#003864;fill-opacity:1"
         d="M 41.859566,115.52496 V 87.870942 l 5.8851,0.0712 5.8851,0.0712 1.49301,2.24895 c 3.76799,5.67583 21.89017,33.556108 22.2713,34.263538 l 0.42764,0.79375 0.0106,-18.72423 0.0106,-18.724238 6.01927,0.0711 6.01927,0.0711 v 27.516658 27.51667 l -6.08542,0.0668 -6.08542,0.0668 -4.89479,-7.53963 c -2.69213,-4.14679 -5.6687,-8.72979 -6.61458,-10.18444 -1.56677,-2.40948 -11.3441,-17.52836 -12.08913,-18.69366 l -0.31517,-0.49296 -0.0156,18.45469 -0.0156,18.45469 h -5.95312 -5.95312 z"
         id="path10430" /><path
         style="fill:#003864;fill-opacity:1"
         d="m 180.03521,154.7545 0.0691,-10.64948 1.65365,-0.0788 1.65364,-0.0788 v 6.28648 6.28649 l 0.72761,-0.85911 c 0.40018,-0.47251 1.6801,-1.91765 2.84427,-3.21141 l 2.11667,-2.3523 2.21287,-0.0197 2.21288,-0.0198 -3.20507,3.40762 c -1.76278,1.8742 -3.20506,3.51331 -3.20506,3.64248 0,0.12918 1.55803,2.01879 3.46229,4.19915 l 3.46229,3.96429 -2.31544,0.0771 c -1.27348,0.0424 -2.38503,-0.035 -2.4701,-0.17189 -0.0851,-0.13694 -1.40482,-1.75619 -2.93279,-3.59835 l -2.77812,-3.34936 -0.0736,3.5874 -0.0736,3.58741 h -1.71532 -1.71533 z"
         id="path10429" /><path
         style="fill:#003864;fill-opacity:1"
         d="m 168.18543,165.06949 c -0.0706,-0.18396 -0.0966,-3.60701 -0.0578,-7.60677 l 0.0705,-7.27228 1.6394,-0.0784 1.63939,-0.0784 0.0804,1.38568 0.0804,1.38567 0.70399,-1.06748 c 0.91409,-1.38607 2.20013,-1.99495 3.99514,-1.89152 l 1.38628,0.0799 v 1.68874 1.68874 l -1.77813,0.0397 c -2.0843,0.0466 -2.96001,0.54631 -3.77812,2.15613 l -0.52916,1.04126 -0.0884,4.43177 -0.0884,4.43177 h -1.5735 c -1.02415,0 -1.61831,-0.11678 -1.70186,-0.33449 z"
         id="path10428" /><path
         style="fill:#003864;fill-opacity:1"
         d="m 129.35614,157.90442 c -1.26541,-4.12475 -2.30074,-7.57757 -2.30074,-7.67292 0,-0.0953 0.75524,-0.17336 1.67832,-0.17336 h 1.67832 l 1.55472,5.44829 c 1.0547,3.69607 1.61663,5.29155 1.74724,4.96094 0.10589,-0.26804 0.8913,-2.69001 1.74536,-5.38214 l 1.55282,-4.89479 h 1.39713 1.39712 l 1.78347,5.42395 1.78348,5.42396 0.20636,-0.92604 c 0.1135,-0.50932 0.61439,-2.35479 1.11309,-4.10104 0.4987,-1.74625 1.0834,-3.80008 1.29933,-4.56406 l 0.3926,-1.38907 h 1.58011 c 1.7061,0 1.7831,0.0856 1.33262,1.48188 -0.13613,0.42189 -0.56381,1.83864 -0.95041,3.14833 -0.3866,1.30969 -1.29281,4.26202 -2.01379,6.56074 l -1.31089,4.1795 -1.62567,-0.0785 -1.62567,-0.0785 -1.64125,-4.97699 c -0.90269,-2.73735 -1.69278,-5.02852 -1.75576,-5.09151 -0.063,-0.063 -0.85828,2.20644 -1.76733,5.04314 l -1.65282,5.15766 h -1.64851 -1.64851 z"
         id="path10427" /><path
         id="path10426"
         style="fill:#003864;fill-opacity:1"
         d="m 156.82103,149.55379 -1.55753,0.63407 c -1.92802,0.78501 -2.88344,1.67978 -3.80752,3.56619 l -0.71675,1.46347 -0.0532,2.01384 c -0.11275,4.2677 1.60354,7.05998 5.0245,8.17521 1.52297,0.49648 3.76247,0.42606 5.41156,-0.17002 1.74922,-0.63226 3.35214,-2.41568 4.04678,-4.50308 l 0.58652,-1.76217 -0.16949,-2.00918 c -0.37411,-4.4363 -2.95,-7.1216 -7.02438,-7.32255 z m 0.26458,3.10317 1.22318,0.11369 c 2.49288,0.23194 3.79298,1.97812 3.79098,5.09271 -0.001,2.12214 -0.4586,3.21232 -1.72702,4.11551 -0.45205,0.32189 -1.3172,0.63066 -1.92237,0.68626 -2.78012,0.25551 -4.64128,-2.107 -4.33358,-5.50044 0.16589,-1.82947 0.80472,-3.03668 2.05724,-3.88813 z" /><path
         style="fill:url(#linearGradient10445)"
         d="M 34.980396,194.21256 C 21.546336,192.67628 12.610776,184.14408 9.9360863,170.29877 l -0.46002,-2.38125 0.002,-5.55625 c 0.002,-5.89797 0.28493,-8.9235 1.3052397,-13.98131 1.52787,-7.57382 4.97543,-17.71227 9.40351,-27.6535 2.0147,-4.52307 7.84105,-16.15426 10.02507,-20.0131 0.90598,-1.600728 2.36243,-4.190338 3.23657,-5.754688 0.87414,-1.56435 1.62988,-2.84427 1.67943,-2.84427 0.0495,0 -0.6299,1.51804 -1.50986,3.37343 -1.74154,3.67203 -3.81527,8.349918 -4.72097,10.649478 -2.28292,5.79632 -5.26196,15.82163 -6.32903,21.29896 -0.31184,1.60073 -0.62507,3.20807 -0.69605,3.57188 -1.78645,9.15572 -1.20087,19.42752 1.43952,25.25077 2.67095,5.89065 7.82251,10.44624 13.91753,12.30744 1.96422,0.59981 1.98647,0.60415 6.08541,1.188 5.80604,0.827 14.08218,-0.20612 22.48959,-2.80739 9.84533,-3.04617 19.82224,-7.84205 33.645859,-16.17349 l 2.954205,-1.78049 9.33201,0.0696 9.332,0.0695 0.47169,2.11667 c 0.25942,1.16417 0.4754,2.24835 0.47994,2.40929 0.007,0.2619 -2.43825,2.14077 -12.03029,9.24232 -13.171664,9.75175 -22.571014,15.73277 -32.274044,20.53668 -2.33115,1.15414 -4.42846,2.20183 -4.66069,2.3282 -0.60802,0.33085 -7.18425,2.99158 -9.36735,3.79001 -10.90003,3.98647 -20.68779,5.57438 -28.70729,4.65729 z"
         id="path10424" /></g></g></svg>
